<?xml version="1.0" encoding="UTF-8"?>
<svg version="1.1" xmlns="http://www.w3.org/2000/svg" width="235" height="215">
<path d="M0 0 C6.40899922 5.12306333 12.94364073 10.081234 19.56298828 14.92822266 C20.41610596 15.55301514 21.26922363 16.17780762 22.14819336 16.8215332 C23.8356188 18.05431387 25.525471 19.28378135 27.21801758 20.50952148 C35.14981226 26.29669956 35.14981226 26.29669956 37.66455078 29.33056641 C37.91455078 32.08056641 37.91455078 32.08056641 37.66455078 34.33056641 C28.87978491 38.72294934 22.420239 37.65966046 13.27392578 34.68603516 C6.890259 32.28870575 0.77814864 29.34085802 -5.33544922 26.33056641 C-5.11888672 27.26513672 -4.90232422 28.19970703 -4.67919922 29.16259766 C-2.98536376 36.9490197 -1.99722095 44.54142754 -1.89794922 52.51806641 C-1.86507812 53.71943237 -1.86507812 53.71943237 -1.83154297 54.94506836 C-1.84453291 58.77507272 -2.03003364 60.83366556 -4.07373047 64.15869141 C-15.18461648 74.82821234 -27.63958678 77.92379985 -42.33544922 80.33056641 C-43.67450189 78.54317021 -45.00653988 76.75051687 -46.33544922 74.95556641 C-47.07794922 73.95783203 -47.82044922 72.96009766 -48.58544922 71.93212891 C-50.33544922 69.33056641 -50.33544922 69.33056641 -50.33544922 67.33056641 C-46.37544922 65.35056641 -42.41544922 63.37056641 -38.33544922 61.33056641 C-39.78564453 61.83716797 -39.78564453 61.83716797 -41.26513672 62.35400391 C-42.58012679 62.80485765 -43.8952376 63.25535935 -45.21044922 63.70556641 C-45.84208984 63.92728516 -46.47373047 64.14900391 -47.12451172 64.37744141 C-56.3914982 67.52821681 -65.24659652 68.69653206 -75.02294922 68.64306641 C-76.07369629 68.63887695 -77.12444336 68.6346875 -78.20703125 68.63037109 C-90.29232738 68.45589439 -101.29647068 66.44745763 -112.33544922 61.33056641 C-112.66544922 61.66056641 -112.99544922 61.99056641 -113.33544922 62.33056641 C-112.55298828 62.65669922 -111.77052734 62.98283203 -110.96435547 63.31884766 C-109.95244141 63.75583984 -108.94052734 64.19283203 -107.89794922 64.64306641 C-106.88861328 65.07232422 -105.87927734 65.50158203 -104.83935547 65.94384766 C-102.33544922 67.33056641 -102.33544922 67.33056641 -101.33544922 70.33056641 C-104.7806378 77.6037423 -104.7806378 77.6037423 -109.33544922 79.33056641 C-120.35250561 81.0754409 -132.35045192 76.52361539 -141.33544922 70.33056641 C-148.75539304 64.49067877 -148.75539304 64.49067877 -150.33544922 61.33056641 C-151.16613444 49.09393408 -149.40572269 37.35786944 -147.33544922 25.33056641 C-149.00220703 26.01892578 -149.00220703 26.01892578 -150.70263672 26.72119141 C-154.53852703 28.3043805 -158.37652501 29.88239393 -162.21533203 31.45849609 C-163.98339219 32.18575437 -165.74951029 32.91773181 -167.51513672 33.65087891 C-168.78744141 34.17294922 -168.78744141 34.17294922 -170.08544922 34.70556641 C-170.80216797 35.00205078 -171.51888672 35.29853516 -172.25732422 35.60400391 C-178.26393596 37.70405989 -184.3306687 38.37554311 -190.27294922 35.83056641 C-191.28357422 35.33556641 -192.29419922 34.84056641 -193.33544922 34.33056641 C-193.63232422 32.13134766 -193.63232422 32.13134766 -193.33544922 29.33056641 C-191.35107422 26.93603516 -191.35107422 26.93603516 -188.58544922 24.51806641 C-188.09028809 24.08429688 -187.59512695 23.65052734 -187.08496094 23.20361328 C-182.78741291 19.52578708 -178.17268192 16.43175843 -173.41748047 13.37353516 C-167.12617414 9.20325226 -161.27148215 4.41002352 -155.32958984 -0.23876953 C-150.37364008 -4.10643506 -145.37769853 -7.91497911 -140.33544922 -11.66943359 C-139.74151367 -12.11770508 -139.14757812 -12.56597656 -138.53564453 -13.02783203 C-95.96467077 -44.69198966 -37.73757946 -30.2996971 0 0 Z M-142.33544922 5.33056641 C-142.90650391 5.87583984 -143.47755859 6.42111328 -144.06591797 6.98291016 C-153.93085005 16.15776749 -164.82493443 24.17917797 -177.33544922 29.33056641 C-173.30824166 30.67296893 -170.80012456 29.31157569 -167.02294922 27.83056641 C-166.31887939 27.55575439 -165.61480957 27.28094238 -164.8894043 26.99780273 C-162.69726378 26.1261045 -160.51589321 25.23107801 -158.33544922 24.33056641 C-157.65224609 24.05647949 -156.96904297 23.78239258 -156.26513672 23.5 C-148.56293812 20.54107753 -148.56293812 20.54107753 -142.76513672 14.99072266 C-141.40710578 11.21637541 -141.0523632 9.17982446 -142.33544922 5.33056641 Z M-10.33544922 8.33056641 C-9.9599032 9.73199422 -9.55881146 11.12658269 -9.14794922 12.51806641 C-8.92751953 13.29537109 -8.70708984 14.07267578 -8.47998047 14.87353516 C-5.77164354 20.68767826 -0.8522718 23.47682843 4.78955078 26.01806641 C5.44318604 26.31914307 6.09682129 26.62021973 6.77026367 26.93041992 C12.26091477 29.35901581 17.67928185 30.72084047 23.66455078 31.33056641 C23.66455078 30.67056641 23.66455078 30.01056641 23.66455078 29.33056641 C21.35778964 27.60995982 21.35778964 27.60995982 18.47705078 25.89306641 C17.51412109 25.29623047 16.55119141 24.69939453 15.55908203 24.08447266 C14.60388672 23.50568359 13.64869141 22.92689453 12.66455078 22.33056641 C11.82279297 21.80333984 10.98103516 21.27611328 10.11376953 20.73291016 C7.7279338 19.27545141 7.7279338 19.27545141 5.20751953 18.43212891 C1.94855107 17.02040985 -0.33458559 15.01616543 -3.02294922 12.70556641 C-6.25720717 9.48307086 -6.25720717 9.48307086 -10.33544922 8.33056641 Z M-113.64794922 26.26806641 C-116.42538781 29.66271357 -116.50777129 33.10136087 -116.58544922 37.39306641 C-116.61123047 38.25029297 -116.63701172 39.10751953 -116.66357422 39.99072266 C-116.49080565 42.34852536 -116.49080565 42.34852536 -115.21826172 44.16259766 C-112.37718789 45.92500652 -110.2300798 45.35211199 -106.96044922 44.95556641 C-102.74233638 44.46102904 -99.46508821 44.37862641 -95.33544922 45.33056641 C-93.89916465 45.39323153 -92.46039372 45.41742987 -91.02294922 45.39306641 C-89.80607422 45.37244141 -88.58919922 45.35181641 -87.33544922 45.33056641 C-86.88380397 38.21715375 -88.00747007 33.61509847 -91.33544922 27.33056641 C-91.99544922 27.33056641 -92.65544922 27.33056641 -93.33544922 27.33056641 C-93.60357422 26.71181641 -93.87169922 26.09306641 -94.14794922 25.45556641 C-95.2910177 23.0310431 -95.2910177 23.0310431 -98.33544922 21.33056641 C-104.73588223 20.72675197 -108.75362508 22.16741645 -113.64794922 26.26806641 Z M-61.33544922 40.33056641 C-61.66544922 41.32056641 -61.99544922 42.31056641 -62.33544922 43.33056641 C-57.23530655 44.35716517 -52.32624 44.51386666 -47.14794922 44.51806641 C-45.93848633 44.53643555 -45.93848633 44.53643555 -44.70458984 44.55517578 C-43.5415332 44.55807617 -43.5415332 44.55807617 -42.35498047 44.56103516 C-41.65477783 44.56514404 -40.9545752 44.56925293 -40.2331543 44.57348633 C-38.00469932 44.43114068 -38.00469932 44.43114068 -35.33544922 42.33056641 C-35.60579556 39.89339382 -35.60579556 39.89339382 -36.33544922 37.33056641 C-43.83236252 32.33262421 -54.73118996 34.64000321 -61.33544922 40.33056641 Z M-78.52294922 56.33056641 C-79.12107422 56.99056641 -79.71919922 57.65056641 -80.33544922 58.33056641 C-78.43789778 60.68030458 -78.43789778 60.68030458 -75.21044922 60.45556641 C-74.26169922 60.41431641 -73.31294922 60.37306641 -72.33544922 60.33056641 C-71.67544922 59.01056641 -71.01544922 57.69056641 -70.33544922 56.33056641 C-73.98127929 53.90001303 -75.20441759 53.29648035 -78.52294922 56.33056641 Z " fill="#FEFEFE" transform="translate(195.33544921875,74.66943359375)"/>
<path d="M0 0 C0.33 1.98 0.66 3.96 1 6 C5.01882523 6.07050571 8.59560266 6.0709469 12.5625 5.375 C16.55021038 4.93997705 19.25061615 5.65022181 23 7 C23.495 7.495 23.495 7.495 24 8 C23.93701066 11.27544584 23.88256607 13.92675608 21.734375 16.5390625 C16.83613056 20.76936452 12.5439806 21.30699232 6.30859375 21.21484375 C0.07922321 20.6351223 -4.03963888 17.63928017 -8 13 C-9.6462795 10.60541164 -9.9898194 9.40722401 -10.0625 6.5 C-8.40079709 2.59011079 -4.37400144 0 0 0 Z " fill="#B5B5B5" transform="translate(79,113)"/>
<path d="M0 0 C0.47393055 3.88623053 0.09594873 6.3794339 -2 9.625 C-5.01830337 13.43803871 -8.32307062 15.65447092 -13 17 C-17.837176 17.50917642 -22.31306763 17.32223092 -27 16 C-27 15.34 -27 14.68 -27 14 C-28.32 14 -29.64 14 -31 14 C-31 13.01 -31 12.02 -31 11 C-31.66 11 -32.32 11 -33 11 C-33.29296875 4.9453125 -33.29296875 4.9453125 -33 3 C-29.70120966 0.80080644 -28.78213648 0.76788432 -24.96484375 0.83984375 C-23.99095703 0.85080078 -23.01707031 0.86175781 -22.01367188 0.87304688 C-20.4909668 0.90495117 -20.4909668 0.90495117 -18.9375 0.9375 C-16.92585168 0.97185453 -14.91412594 1.00201316 -12.90234375 1.02734375 C-11.56417603 1.05429321 -11.56417603 1.05429321 -10.19897461 1.08178711 C-6.68135678 0.95095532 -3.73703076 -0.0812398 0 0 Z " fill="#B6B6B6" transform="translate(165,117)"/>
<path d="M0 0 C1.95099609 -0.00773437 1.95099609 -0.00773437 3.94140625 -0.015625 C7.11640894 0.22560425 8.85755946 0.45854984 11.4375 2.25 C12.87485246 5.12470493 12.81922649 7.06894588 12.4375 10.25 C10.125 12.5 10.125 12.5 7.4375 14.25 C6.4475 14.91 5.4575 15.57 4.4375 16.25 C3.4475 16.25 2.4575 16.25 1.4375 16.25 C1.1075 17.24 0.7775 18.23 0.4375 19.25 C-2.71037202 19.55806577 -4.27804599 19.41362793 -7.0546875 17.81640625 C-13.38868619 12.48961719 -13.38868619 12.48961719 -13.91796875 8.71484375 C-13.65007487 6.46096321 -13.24796143 4.41145501 -12.5625 2.25 C-8.29402683 0.17744656 -4.71593995 -0.01873263 0 0 Z " fill="#B7B7B7" transform="translate(122.5625,104.75)"/>
<path d="M0 0 C0.18175781 0.84884766 0.18175781 0.84884766 0.3671875 1.71484375 C0.53476563 2.44832031 0.70234375 3.18179688 0.875 3.9375 C1.11863281 5.03384766 1.11863281 5.03384766 1.3671875 6.15234375 C1.82961523 8.20700294 1.82961523 8.20700294 4 9 C3.34 9 2.68 9 2 9 C1.67 9.99 1.34 10.98 1 12 C-0.5625 13.6875 -0.5625 13.6875 -2 15 C-0.02 14.34 1.96 13.68 4 13 C3.67 13.99 3.34 14.98 3 16 C3.598125 15.649375 4.19625 15.29875 4.8125 14.9375 C7 14 7 14 10 15 C9.67 16.32 9.34 17.64 9 19 C10.32 19.66 11.64 20.32 13 21 C5.4931526 21.4596029 0.09595401 20.68316015 -5.8125 15.5625 C-8.49146027 12.4242894 -9.95841244 10.66350226 -10.0625 6.5 C-8.40079709 2.59011079 -4.37400144 0 0 0 Z " fill="#B7B7B7" transform="translate(79,113)"/>
<path d="M0 0 C0.25 5.625 0.25 5.625 -2 9 C-6.44444444 12 -6.44444444 12 -9 12 C-9.33 10.68 -9.66 9.36 -10 8 C-12.46800047 9.15173355 -14.04783565 10.04783565 -16 12 C-16.99 12 -17.98 12 -19 12 C-18.34 10.68 -17.68 9.36 -17 8 C-17.66 8 -18.32 8 -19 8 C-19.99 8 -20.98 8 -22 8 C-22 7.34 -22 6.68 -22 6 C-19.69 5.01 -17.38 4.02 -15 3 C-16.32 2.34 -17.64 1.68 -19 1 C-18.22914063 1.01160156 -17.45828125 1.02320312 -16.6640625 1.03515625 C-15.15972656 1.04869141 -15.15972656 1.04869141 -13.625 1.0625 C-12.12839844 1.07990234 -12.12839844 1.07990234 -10.6015625 1.09765625 C-6.91272189 0.95918626 -3.88176219 -0.08438613 0 0 Z " fill="#B1B1B1" transform="translate(165,117)"/>
<path d="M0 0 C0.33 0.66 0.66 1.32 1 2 C1.33 1.67 1.66 1.34 2 1 C5.52637472 0.84327223 8.61905851 0.95971031 12 2 C12 2.66 12 3.32 12 4 C6.64285714 9 6.64285714 9 3 9 C3 8.34 3 7.68 3 7 C1.02 7.33 -0.96 7.66 -3 8 C-3.33 7.34 -3.66 6.68 -4 6 C-5.32 6.33 -6.64 6.66 -8 7 C-6.76759083 3.3027725 -4.20634615 0 0 0 Z " fill="#A0A0A0" transform="translate(85,121)"/>
<path d="M0 0 C0.66 0 1.32 0 2 0 C2.99 0 3.98 0 5 0 C3.96461386 2.82378039 3.33380245 3.8243145 0.625 5.25 C-2 6 -2 6 -6 6 C-6.33 5.34 -6.66 4.68 -7 4 C-8.65 4.33 -10.3 4.66 -12 5 C-12 3 -12 3 -9.9375 0.8125 C-6.14161995 -1.52963876 -4.25441058 -0.96326277 0 0 Z " fill="#A1A1A1" transform="translate(125,112)"/>
<path d="M0 0 C1.21236328 0.02707031 1.21236328 0.02707031 2.44921875 0.0546875 C3.37154297 0.08949219 3.37154297 0.08949219 4.3125 0.125 C3.57709235 3.45884804 2.61380525 5.54753812 0.3125 8.125 C-0.3475 8.125 -1.0075 8.125 -1.6875 8.125 C-2.0175 6.805 -2.3475 5.485 -2.6875 4.125 C-5.15550047 5.27673355 -6.73533565 6.17283565 -8.6875 8.125 C-9.6775 8.125 -10.6675 8.125 -11.6875 8.125 C-11.0275 6.805 -10.3675 5.485 -9.6875 4.125 C-9.0275 4.125 -8.3675 4.125 -7.6875 4.125 C-7.6875 3.465 -7.6875 2.805 -7.6875 2.125 C-4.48369983 -0.01086678 -3.66810033 -0.10632175 0 0 Z " fill="#A0A0A0" transform="translate(157.6875,120.875)"/>
<path d="M0 0 C-0.99 0.495 -0.99 0.495 -2 1 C-2.33 1.99 -2.66 2.98 -3 4 C-5.0625 4.6875 -5.0625 4.6875 -7 5 C-7 4.34 -7 3.68 -7 3 C-9.64 3.66 -12.28 4.32 -15 5 C-15 4.01 -15 3.02 -15 2 C-16.32 2 -17.64 2 -19 2 C-18.67 1.34 -18.34 0.68 -18 0 C-11.95292221 -1.20313831 -6.02303412 -1.20460682 0 0 Z " fill="#AEAEAE" transform="translate(100,119)"/>
<path d="M0 0 C-0.33 0.99 -0.66 1.98 -1 3 C-2.98 3.33 -4.96 3.66 -7 4 C-7 3.34 -7 2.68 -7 2 C-4.35261084 0.5393715 -3.10551666 0 0 0 Z " fill="#A0A0A0" transform="translate(150,121)"/>
</svg>
